ffmpeg started on 2025-05-02 at 14:12:41
Report written to "D:\Convert\FFMetrics\reports\ssim_report-6.txt"
Log level: 32
Command line:
ffmpeg -hide_banner -nostdin -i "G:\\\xc0\xed\xe8\xec\xe5\\\xce\xed\xe3\xee\xe8\xed\xe3\xe8\\!_35_\xcb\xe5\xf2\xee_2024\\JamClub\\\xcf\xee\xf7\xe5\xec\xf3 \xe2\xf1\xe5 \xe7\xe0\xe1\xfb\xeb\xe8 \xec\xee\xe9 \xec\xe8\xf0\\JamClub_Naze_Boku_no_Sekai_o_Dare_mo_Oboeteinai_no_ka_04_1080p_HEVC.mkv" -i "G:\\\xc0\xed\xe8\xec\xe5\\\xce\xed\xe3\xee\xe8\xed\xe3\xe8\\!_35_\xcb\xe5\xf2\xee_2024\\JamClub\\\xcf\xee\xf7\xe5\xec\xf3 \xe2\xf1\xe5 \xe7\xe0\xe1\xfb\xeb\xe8 \xec\xee\xe9 \xec\xe8\xf0\\JamClub_Naze_Boku_no_Sekai_o_Dare_mo_Oboeteinai_no_ka_04_1080p.mp4" -lavfi "[0:v]settb=AVTB,setpts=PTS-STARTPTS,format=pix_fmts=yuv420p10,fps=24000/1001,scale=1920:1080:flags=bicubic[main];[1:v]settb=AVTB,setpts=PTS-STARTPTS,format=pix_fmts=yuv420p,fps=24000/1001,scale=1920:1080:flags=bicubic[ref];[main][ref]ssim=eof_action=endall:stats_file='D\\:/Convert/FFMetrics/logs/ssim_logfile-6.txt'" -f null -
Input #0, matroska,webm, from 'G:\Аниме\Онгоинги\!_35_Лето_2024\JamClub\Почему все забыли мой мир\JamClub_Naze_Boku_no_Sekai_o_Dare_mo_Oboeteinai_no_ka_04_1080p_HEVC.mkv':
  Metadata:
    COMPATIBLE_BRANDS: isomiso2avc1mp41
    MAJOR_BRAND     : isom
    MINOR_VERSION   : 512
    ENCODER         : Lavf61.7.100
  Duration: 00:24:02.37, start: -0.001000, bitrate: 1496 kb/s
  Stream #0:0: Video: hevc (Main 10), yuv420p10le(tv, bt709, progressive), 1920x1080 [SAR 1:1 DAR 16:9], 23.98 fps, 23.98 tbr, 1k tbn (default)
      Metadata:
        HANDLER_NAME    : VideoHandler
        VENDOR_ID       : [0][0][0][0]
        ENCODER         : Lavc61.19.100 libx265
        BPS             : 1298785
        DURATION        : 00:24:02.232708333
        NUMBER_OF_FRAMES: 34579
        NUMBER_OF_BYTES : 234143737
        _STATISTICS_WRITING_APP: mkvpropedit v66.0.0 ('Josie') 64-bit
        _STATISTICS_WRITING_DATE_UTC: 2025-04-30 11:33:41
        _STATISTICS_TAGS: BPS DURATION NUMBER_OF_FRAMES NUMBER_OF_BYTES
  Stream #0:1(eng): Audio: aac (LC), 48000 Hz, stereo, fltp (default)
      Metadata:
        HANDLER_NAME    : SoundHandler
        VENDOR_ID       : [0][0][0][0]
        ENCODER         : Lavc61.19.100 aac
        BPS             : 193631
        DURATION        : 00:24:02.328000000
        NUMBER_OF_FRAMES: 67610
        NUMBER_OF_BYTES : 34909929
        _STATISTICS_WRITING_APP: mkvpropedit v66.0.0 ('Josie') 64-bit
        _STATISTICS_WRITING_DATE_UTC: 2025-04-30 11:33:41
        _STATISTICS_TAGS: BPS DURATION NUMBER_OF_FRAMES NUMBER_OF_BYTES
Input #1, mov,mp4,m4a,3gp,3g2,mj2, from 'G:\Аниме\Онгоинги\!_35_Лето_2024\JamClub\Почему все забыли мой мир\JamClub_Naze_Boku_no_Sekai_o_Dare_mo_Oboeteinai_no_ka_04_1080p.mp4':
  Metadata:
    major_brand     : isom
    minor_version   : 512
    compatible_brands: isomiso2avc1mp41
    encoder         : Lavf60.16.100
  Duration: 00:24:02.35, start: 0.000000, bitrate: 4480 kb/s
  Stream #1:0[0x1](und): Video: h264 (High) (avc1 / 0x31637661), yuv420p(progressive), 1920x1080 [SAR 1:1 DAR 16:9], 4283 kb/s, 23.98 fps, 23.98 tbr, 90k tbn (default)
      Metadata:
        handler_name    : VideoHandler
        vendor_id       : [0][0][0][0]
  Stream #1:1[0x2](eng): Audio: aac (LC) (mp4a / 0x6134706D), 48000 Hz, stereo, fltp, 191 kb/s (default)
      Metadata:
        handler_name    : SoundHandler
        vendor_id       : [0][0][0][0]
Stream mapping:
  Stream #0:0 (hevc) -> settb:default
  Stream #1:0 (h264) -> settb:default
  ssim:default -> Stream #0:0 (wrapped_avframe)
  Stream #0:1 -> #0:1 (aac (native) -> pcm_s16le (native))
Output #0, null, to 'pipe:':
  Metadata:
    COMPATIBLE_BRANDS: isomiso2avc1mp41
    MAJOR_BRAND     : isom
    MINOR_VERSION   : 512
    encoder         : Lavf61.7.100
  Stream #0:0: Video: wrapped_avframe, yuv420p10le(tv, bt709, progressive), 1920x1080 [SAR 1:1 DAR 16:9], q=2-31, 200 kb/s, 23.98 fps, 23.98 tbn
      Metadata:
        encoder         : Lavc61.19.100 wrapped_avframe
  Stream #0:1(eng): Audio: pcm_s16le, 48000 Hz, stereo, s16, 1536 kb/s (default)
      Metadata:
        HANDLER_NAME    : SoundHandler
        VENDOR_ID       : [0][0][0][0]
        _STATISTICS_TAGS: BPS DURATION NUMBER_OF_FRAMES NUMBER_OF_BYTES
        BPS             : 193631
        DURATION        : 00:24:02.328000000
        NUMBER_OF_FRAMES: 67610
        NUMBER_OF_BYTES : 34909929
        _STATISTICS_WRITING_APP: mkvpropedit v66.0.0 ('Josie') 64-bit
        _STATISTICS_WRITING_DATE_UTC: 2025-04-30 11:33:41
        encoder         : Lavc61.19.100 pcm_s16le
frame=  114 fps=0.0 q=-0.0 size=N/A time=00:00:04.75 bitrate=N/A speed= 9.3x    frame=  269 fps=264 q=-0.0 size=N/A time=00:00:11.21 bitrate=N/A speed=  11x    frame=  468 fps=303 q=-0.0 size=N/A time=00:00:19.51 bitrate=N/A speed=12.6x    frame=  669 fps=326 q=-0.0 size=N/A time=00:00:27.90 bitrate=N/A speed=13.6x    frame=  887 fps=344 q=-0.0 size=N/A time=00:00:36.99 bitrate=N/A speed=14.4x    frame= 1099 fps=355 q=-0.0 size=N/A time=00:00:45.83 bitrate=N/A speed=14.8x    frame= 1295 fps=359 q=-0.0 size=N/A time=00:00:54.01 bitrate=N/A speed=  15x    frame= 1521 fps=368 q=-0.0 size=N/A time=00:01:03.43 bitrate=N/A speed=15.4x    frame= 1758 fps=380 q=-0.0 size=N/A time=00:01:13.32 bitrate=N/A speed=15.8x    frame= 1999 fps=388 q=-0.0 size=N/A time=00:01:23.37 bitrate=N/A speed=16.2x    frame= 2220 fps=391 q=-0.0 size=N/A time=00:01:32.59 bitrate=N/A speed=16.3x    frame= 2431 fps=393 q=-0.0 size=N/A time=00:01:41.39 bitrate=N/A speed=16.4x    frame= 2640 fps=394 q=-0.0 size=N/A time=00:01:50.11 bitrate=N/A speed=16.4x    frame= 2871 fps=398 q=-0.0 size=N/A time=00:01:59.74 bitrate=N/A speed=16.6x    frame= 3124 fps=404 q=-0.0 size=N/A time=00:02:10.29 bitrate=N/A speed=16.8x    frame= 3300 fps=400 q=-0.0 size=N/A time=00:02:17.63 bitrate=N/A speed=16.7x    frame= 3522 fps=402 q=-0.0 size=N/A time=00:02:26.89 bitrate=N/A speed=16.8x    frame= 3764 fps=406 q=-0.0 size=N/A time=00:02:36.99 bitrate=N/A speed=16.9x    frame= 4019 fps=410 q=-0.0 size=N/A time=00:02:47.62 bitrate=N/A speed=17.1x    frame= 4240 fps=411 q=-0.0 size=N/A time=00:02:56.84 bitrate=N/A speed=17.2x    frame= 4396 fps=406 q=-0.0 size=N/A time=00:03:03.34 bitrate=N/A speed=16.9x    frame= 4582 fps=404 q=-0.0 size=N/A time=00:03:11.10 bitrate=N/A speed=16.8x    frame= 4793 fps=404 q=-0.0 size=N/A time=00:03:19.90 bitrate=N/A speed=16.9x    frame= 4988 fps=403 q=-0.0 size=N/A time=00:03:28.04 bitrate=N/A speed=16.8x    frame= 5174 fps=401 q=-0.0 size=N/A time=00:03:35.79 bitrate=N/A speed=16.7x    frame= 5379 fps=401 q=-0.0 size=N/A time=00:03:44.34 bitrate=N/A speed=16.7x    frame= 5550 fps=398 q=-0.0 size=N/A time=00:03:51.48 bitrate=N/A speed=16.6x    frame= 5724 fps=396 q=-0.0 size=N/A time=00:03:58.73 bitrate=N/A speed=16.5x    frame= 5905 fps=395 q=-0.0 size=N/A time=00:04:06.28 bitrate=N/A speed=16.5x    frame= 6078 fps=393 q=-0.0 size=N/A time=00:04:13.50 bitrate=N/A speed=16.4x    frame= 6300 fps=394 q=-0.0 size=N/A time=00:04:22.76 bitrate=N/A speed=16.4x    frame= 6558 fps=397 q=-0.0 size=N/A time=00:04:33.52 bitrate=N/A speed=16.6x    frame= 6795 fps=399 q=-0.0 size=N/A time=00:04:43.40 bitrate=N/A speed=16.6x    frame= 6987 fps=398 q=-0.0 size=N/A time=00:04:51.41 bitrate=N/A speed=16.6x    frame= 7160 fps=397 q=-0.0 size=N/A time=00:04:58.63 bitrate=N/A speed=16.5x    frame= 7370 fps=397 q=-0.0 size=N/A time=00:05:07.39 bitrate=N/A speed=16.5x    frame= 7544 fps=395 q=-0.0 size=N/A time=00:05:14.64 bitrate=N/A speed=16.5x    frame= 7735 fps=395 q=-0.0 size=N/A time=00:05:22.61 bitrate=N/A speed=16.5x    frame= 7941 fps=395 q=-0.0 size=N/A time=00:05:31.20 bitrate=N/A speed=16.5x    frame= 8167 fps=396 q=-0.0 size=N/A time=00:05:40.63 bitrate=N/A speed=16.5x    frame= 8363 fps=395 q=-0.0 size=N/A time=00:05:48.80 bitrate=N/A speed=16.5x    frame= 8559 fps=395 q=-0.0 size=N/A time=00:05:56.98 bitrate=N/A speed=16.5x    frame= 8765 fps=395 q=-0.0 size=N/A time=00:06:05.57 bitrate=N/A speed=16.5x    frame= 9006 fps=397 q=-0.0 size=N/A time=00:06:15.62 bitrate=N/A speed=16.5x    frame= 9219 fps=397 q=-0.0 size=N/A time=00:06:24.50 bitrate=N/A speed=16.6x    frame= 9482 fps=399 q=-0.0 size=N/A time=00:06:35.47 bitrate=N/A speed=16.7x    frame= 9696 fps=400 q=-0.0 size=N/A time=00:06:44.40 bitrate=N/A speed=16.7x    frame= 9908 fps=400 q=-0.0 size=N/A time=00:06:53.24 bitrate=N/A speed=16.7x    frame=10124 fps=400 q=-0.0 size=N/A time=00:07:02.25 bitrate=N/A speed=16.7x    frame=10330 fps=400 q=-0.0 size=N/A time=00:07:10.84 bitrate=N/A speed=16.7x    frame=10529 fps=400 q=-0.0 size=N/A time=00:07:19.14 bitrate=N/A speed=16.7x    frame=10773 fps=401 q=-0.0 size=N/A time=00:07:29.32 bitrate=N/A speed=16.7x    frame=11014 fps=403 q=-0.0 size=N/A time=00:07:39.37 bitrate=N/A speed=16.8x    frame=11244 fps=404 q=-0.0 size=N/A time=00:07:48.96 bitrate=N/A speed=16.8x    frame=11463 fps=404 q=-0.0 size=N/A time=00:07:58.10 bitrate=N/A speed=16.8x    frame=11656 fps=403 q=-0.0 size=N/A time=00:08:06.15 bitrate=N/A speed=16.8x    frame=11864 fps=403 q=-0.0 size=N/A time=00:08:14.82 bitrate=N/A speed=16.8x    frame=12081 fps=404 q=-0.0 size=N/A time=00:08:23.87 bitrate=N/A speed=16.8x    frame=12326 fps=405 q=-0.0 size=N/A time=00:08:34.09 bitrate=N/A speed=16.9x    frame=12567 fps=406 q=-0.0 size=N/A time=00:08:44.14 bitrate=N/A speed=16.9x    frame=12761 fps=405 q=-0.0 size=N/A time=00:08:52.24 bitrate=N/A speed=16.9x    frame=12983 fps=406 q=-0.0 size=N/A time=00:09:01.49 bitrate=N/A speed=16.9x    frame=13212 fps=406 q=-0.0 size=N/A time=00:09:11.05 bitrate=N/A speed=16.9x    frame=13480 fps=408 q=-0.0 size=N/A time=00:09:22.22 bitrate=N/A speed=  17x    frame=13701 fps=409 q=-0.0 size=N/A time=00:09:31.44 bitrate=N/A speed=  17x    frame=13939 fps=409 q=-0.0 size=N/A time=00:09:41.37 bitrate=N/A speed=17.1x    frame=14193 fps=410 q=-0.0 size=N/A time=00:09:51.96 bitrate=N/A speed=17.1x    frame=14412 fps=411 q=-0.0 size=N/A time=00:10:01.10 bitrate=N/A speed=17.1x    frame=14655 fps=412 q=-0.0 size=N/A time=00:10:11.23 bitrate=N/A speed=17.2x    frame=14913 fps=413 q=-0.0 size=N/A time=00:10:21.99 bitrate=N/A speed=17.2x    frame=15115 fps=412 q=-0.0 size=N/A time=00:10:30.42 bitrate=N/A speed=17.2x    frame=15313 fps=412 q=-0.0 size=N/A time=00:10:38.67 bitrate=N/A speed=17.2x    frame=15505 fps=412 q=-0.0 size=N/A time=00:10:46.68 bitrate=N/A speed=17.2x    frame=15720 fps=412 q=-0.0 size=N/A time=00:10:55.65 bitrate=N/A speed=17.2x    frame=15948 fps=412 q=-0.0 size=N/A time=00:11:05.16 bitrate=N/A speed=17.2x    frame=16143 fps=412 q=-0.0 size=N/A time=00:11:13.29 bitrate=N/A speed=17.2x    frame=16334 fps=411 q=-0.0 size=N/A time=00:11:21.26 bitrate=N/A speed=17.1x    frame=16527 fps=411 q=-0.0 size=N/A time=00:11:29.31 bitrate=N/A speed=17.1x    frame=16764 fps=411 q=-0.0 size=N/A time=00:11:39.19 bitrate=N/A speed=17.2x    frame=16984 fps=411 q=-0.0 size=N/A time=00:11:48.37 bitrate=N/A speed=17.2x    frame=17215 fps=412 q=-0.0 size=N/A time=00:11:58.00 bitrate=N/A speed=17.2x    frame=17429 fps=412 q=-0.0 size=N/A time=00:12:06.93 bitrate=N/A speed=17.2x    frame=17636 fps=412 q=-0.0 size=N/A time=00:12:15.56 bitrate=N/A speed=17.2x    frame=17862 fps=412 q=-0.0 size=N/A time=00:12:24.99 bitrate=N/A speed=17.2x    frame=18097 fps=412 q=-0.0 size=N/A time=00:12:34.79 bitrate=N/A speed=17.2x    frame=18316 fps=413 q=-0.0 size=N/A time=00:12:43.92 bitrate=N/A speed=17.2x    frame=18539 fps=413 q=-0.0 size=N/A time=00:12:53.23 bitrate=N/A speed=17.2x    frame=18743 fps=413 q=-0.0 size=N/A time=00:13:01.73 bitrate=N/A speed=17.2x    frame=18969 fps=413 q=-0.0 size=N/A time=00:13:11.16 bitrate=N/A speed=17.2x    frame=19207 fps=414 q=-0.0 size=N/A time=00:13:21.09 bitrate=N/A speed=17.2x    frame=19432 fps=414 q=-0.0 size=N/A time=00:13:30.47 bitrate=N/A speed=17.3x    frame=19688 fps=415 q=-0.0 size=N/A time=00:13:41.15 bitrate=N/A speed=17.3x    frame=19969 fps=416 q=-0.0 size=N/A time=00:13:52.87 bitrate=N/A speed=17.4x    frame=20244 fps=417 q=-0.0 size=N/A time=00:14:04.34 bitrate=N/A speed=17.4x    frame=20499 fps=418 q=-0.0 size=N/A time=00:14:14.97 bitrate=N/A speed=17.4x    frame=20773 fps=419 q=-0.0 size=N/A time=00:14:26.40 bitrate=N/A speed=17.5x    frame=21066 fps=421 q=-0.0 size=N/A time=00:14:38.62 bitrate=N/A speed=17.6x    frame=21291 fps=421 q=-0.0 size=N/A time=00:14:48.01 bitrate=N/A speed=17.6x    frame=21494 fps=421 q=-0.0 size=N/A time=00:14:56.47 bitrate=N/A speed=17.5x    frame=21736 fps=421 q=-0.0 size=N/A time=00:15:06.57 bitrate=N/A speed=17.6x    frame=22016 fps=422 q=-0.0 size=N/A time=00:15:18.25 bitrate=N/A speed=17.6x    frame=22283 fps=423 q=-0.0 size=N/A time=00:15:29.38 bitrate=N/A speed=17.7x    frame=22546 fps=424 q=-0.0 size=N/A time=00:15:40.35 bitrate=N/A speed=17.7x    frame=22830 fps=425 q=-0.0 size=N/A time=00:15:52.20 bitrate=N/A speed=17.7x    frame=23086 fps=426 q=-0.0 size=N/A time=00:16:02.87 bitrate=N/A speed=17.8x    frame=23281 fps=426 q=-0.0 size=N/A time=00:16:11.01 bitrate=N/A speed=17.8x    frame=23554 fps=427 q=-0.0 size=N/A time=00:16:22.39 bitrate=N/A speed=17.8x    frame=23801 fps=427 q=-0.0 size=N/A time=00:16:32.70 bitrate=N/A speed=17.8x    frame=24040 fps=427 q=-0.0 size=N/A time=00:16:42.66 bitrate=N/A speed=17.8x    frame=24285 fps=428 q=-0.0 size=N/A time=00:16:52.88 bitrate=N/A speed=17.8x    frame=24509 fps=428 q=-0.0 size=N/A time=00:17:02.22 bitrate=N/A speed=17.8x    frame=24762 fps=428 q=-0.0 size=N/A time=00:17:12.78 bitrate=N/A speed=17.9x    frame=24971 fps=428 q=-0.0 size=N/A time=00:17:21.49 bitrate=N/A speed=17.9x    frame=25232 fps=429 q=-0.0 size=N/A time=00:17:32.42 bitrate=N/A speed=17.9x    frame=25479 fps=429 q=-0.0 size=N/A time=00:17:42.68 bitrate=N/A speed=17.9x    frame=25739 fps=430 q=-0.0 size=N/A time=00:17:53.53 bitrate=N/A speed=17.9x    frame=25979 fps=430 q=-0.0 size=N/A time=00:18:03.54 bitrate=N/A speed=17.9x    frame=26241 fps=431 q=-0.0 size=N/A time=00:18:14.46 bitrate=N/A speed=  18x    frame=26500 fps=432 q=-0.0 size=N/A time=00:18:25.27 bitrate=N/A speed=  18x    frame=26741 fps=432 q=-0.0 size=N/A time=00:18:35.32 bitrate=N/A speed=  18x    frame=26953 fps=432 q=-0.0 size=N/A time=00:18:44.16 bitrate=N/A speed=  18x    frame=27166 fps=432 q=-0.0 size=N/A time=00:18:53.04 bitrate=N/A speed=  18x    frame=27401 fps=432 q=-0.0 size=N/A time=00:19:02.85 bitrate=N/A speed=  18x    frame=27649 fps=432 q=-0.0 size=N/A time=00:19:13.19 bitrate=N/A speed=  18x    frame=27916 fps=433 q=-0.0 size=N/A time=00:19:24.32 bitrate=N/A speed=18.1x    frame=28159 fps=433 q=-0.0 size=N/A time=00:19:34.46 bitrate=N/A speed=18.1x    frame=28401 fps=433 q=-0.0 size=N/A time=00:19:44.55 bitrate=N/A speed=18.1x    frame=28646 fps=434 q=-0.0 size=N/A time=00:19:54.77 bitrate=N/A speed=18.1x    frame=28920 fps=434 q=-0.0 size=N/A time=00:20:06.20 bitrate=N/A speed=18.1x    frame=29155 fps=435 q=-0.0 size=N/A time=00:20:16.00 bitrate=N/A speed=18.1x    frame=29396 fps=435 q=-0.0 size=N/A time=00:20:26.05 bitrate=N/A speed=18.1x    frame=29650 fps=435 q=-0.0 size=N/A time=00:20:36.65 bitrate=N/A speed=18.2x    frame=29923 fps=436 q=-0.0 size=N/A time=00:20:48.03 bitrate=N/A speed=18.2x    frame=30177 fps=436 q=-0.0 size=N/A time=00:20:58.63 bitrate=N/A speed=18.2x    frame=30436 fps=437 q=-0.0 size=N/A time=00:21:09.43 bitrate=N/A speed=18.2x    frame=30697 fps=437 q=-0.0 size=N/A time=00:21:20.32 bitrate=N/A speed=18.2x    frame=30944 fps=438 q=-0.0 size=N/A time=00:21:30.62 bitrate=N/A speed=18.3x    frame=31207 fps=438 q=-0.0 size=N/A time=00:21:41.59 bitrate=N/A speed=18.3x    frame=31457 fps=439 q=-0.0 size=N/A time=00:21:52.01 bitrate=N/A speed=18.3x    frame=31726 fps=439 q=-0.0 size=N/A time=00:22:03.23 bitrate=N/A speed=18.3x    frame=31966 fps=439 q=-0.0 size=N/A time=00:22:13.24 bitrate=N/A speed=18.3x    frame=32201 fps=440 q=-0.0 size=N/A time=00:22:23.05 bitrate=N/A speed=18.3x    frame=32382 fps=439 q=-0.0 size=N/A time=00:22:30.59 bitrate=N/A speed=18.3x    frame=32630 fps=439 q=-0.0 size=N/A time=00:22:40.94 bitrate=N/A speed=18.3x    frame=32876 fps=439 q=-0.0 size=N/A time=00:22:51.20 bitrate=N/A speed=18.3x    frame=33031 fps=439 q=-0.0 size=N/A time=00:22:57.66 bitrate=N/A speed=18.3x    frame=33186 fps=438 q=-0.0 size=N/A time=00:23:04.13 bitrate=N/A speed=18.2x    frame=33347 fps=437 q=-0.0 size=N/A time=00:23:10.84 bitrate=N/A speed=18.2x    frame=33527 fps=436 q=-0.0 size=N/A time=00:23:18.35 bitrate=N/A speed=18.2x    frame=33751 fps=436 q=-0.0 size=N/A time=00:23:27.69 bitrate=N/A speed=18.2x    frame=33973 fps=436 q=-0.0 size=N/A time=00:23:36.95 bitrate=N/A speed=18.2x    frame=34180 fps=436 q=-0.0 size=N/A time=00:23:45.59 bitrate=N/A speed=18.2x    frame=34339 fps=435 q=-0.0 size=N/A time=00:23:52.22 bitrate=N/A speed=18.1x    frame=34500 fps=434 q=-0.0 size=N/A time=00:23:58.93 bitrate=N/A speed=18.1x    [Parsed_ssim_10 @ 00000204124b80c0] SSIM Y:0.993688 (21.998021) U:0.992765 (21.405582) V:0.993522 (21.885300) All:0.993506 (21.874957)
[out#0/null @ 0000020411c0c100] video:14858KiB audio:270440KiB subtitle:0KiB other streams:0KiB global headers:0KiB muxing overhead: unknown
frame=34579 fps=434 q=-0.0 Lsize=N/A time=00:24:02.23 bitrate=N/A speed=18.1x    
